# xmcd
#
# Track frame offsets: 
#        150
#        11415
#        23815
#        35995
#        48486
#        60821
#        73654
#        88493
#        101613
#        113940
#        126462
#        138649
#        151893
#        165911
#        179103
#        192367
#        206684
#        219990
#        232368
#        245006
#
# Disc length: 3475 seconds
#
# Revision: 1
# Processed by: cddbd v1.5.2PL0 Copyright (c) Steve Scherf et al.
# Submitted via: ExactAudioCopy v0.99pb4
#
DISCID=2e0d9114
DTITLE=Various Artist - Rude Dudes [Disk 2 of 2]
DYEAR=2003
DGENRE=Blues
TTITLE0=Sam Theard - I Wonder Whose Boogiein' My Woogie
TTITLE1=Lil Johnson - If You Don't Give Me What I Want
TTITLE2=Victoria Spivey - One Hour Mama
TTITLE3=Margaret Webster - You Got To Give Me Some
TTITLE4=Chicago Black Swans - Don't Tear My Clothes No. 2
TTITLE5=Georgia Tom and Jane Lucas - Terrible Operation Blues
TTITLE6=Bo Carter - Cigarette Blues
TTITLE7=Blind Willie McTell - Southern Can Mama
TTITLE8=Blind Boy Fuller - What's That Smell Like Fish?
TTITLE9=Mac Glover and John Byrd - Gas Man Blues
TTITLE10=Bob Howe and Frankie Griggs - The Hottest Stuff In Town
TTITLE11=Hunter and Jenkins - Meat Cuttin' Blues
TTITLE12=Lil Johnson - My Baby (Squeeze Me Again)
TTITLE13=Lonnie Johnson - The Best Jockey In Town
TTITLE14=Bessie Smith - Kitchen Man
TTITLE15=Whistlin' Alex Moore - Blue Bloomer Blues
TTITLE16=Bo Carter - My Pencil Won't Write No More
TTITLE17=Al Miller - Ain't That a Mess
TTITLE18=Louie Lasky - How You Want Your Rollin' Done?
TTITLE19=Lizzie Miles - My Man O'War
EXTD=
EXTT0=
EXTT1=
EXTT2=
EXTT3=
EXTT4=
EXTT5=
EXTT6=
EXTT7=
EXTT8=
EXTT9=
EXTT10=
EXTT11=
EXTT12=
EXTT13=
EXTT14=
EXTT15=
EXTT16=
EXTT17=
EXTT18=
EXTT19=
PLAYORDER=
